# Blender v2.79 (sub 0) OBJ File: ''
# www.blender.org
mtllib lamp_wall_01.mtl
o Plane_Plane.001
v -0.824039 -0.423507 -0.000000
v -1.000000 -0.307748 -0.000000
v -0.948462 -0.389602 -0.000000
v 1.000000 -0.307748 -0.000000
v 0.824039 -0.423507 -0.000000
v 0.948462 -0.389602 -0.000000
v -1.000000 0.307748 0.000000
v -0.824039 0.423507 0.000000
v -0.948462 0.389602 0.000000
v 0.824039 0.423507 0.000000
v 1.000000 0.307748 -0.000000
v 0.948462 0.389602 0.000000
v -0.663532 -0.298829 0.148456
v -0.839493 -0.183069 0.148456
v -0.787955 -0.264923 0.148456
v 0.839493 -0.183069 0.148456
v 0.663532 -0.298829 0.148456
v 0.787955 -0.264923 0.148456
v -0.839493 0.183069 0.148456
v -0.663532 0.298829 0.148456
v -0.787955 0.264923 0.148456
v 0.663532 0.298829 0.148456
v 0.839493 0.183069 0.148456
v 0.787955 0.264923 0.148456
v -0.602927 -0.257378 0.148456
v -0.778888 -0.141619 0.148456
v -0.727350 -0.223473 0.148456
v 0.778888 -0.141619 0.148456
v 0.602927 -0.257378 0.148456
v 0.727350 -0.223473 0.148456
v -0.778888 0.141619 0.148456
v -0.602927 0.257378 0.148456
v -0.727350 0.223473 0.148456
v 0.602927 0.257378 0.148456
v 0.778888 0.141619 0.148456
v 0.727350 0.223473 0.148456
v -0.778888 -0.141619 0.182712
v -0.602927 -0.257378 0.182712
v -0.727350 -0.223473 0.182712
v -0.654472 -0.088928 0.307128
v -0.478511 -0.204687 0.307128
v -0.602934 -0.170782 0.307128
v -0.593456 -0.253367 0.230324
v -0.769417 -0.137608 0.230324
v -0.717879 -0.219462 0.230324
v -0.566486 -0.241945 0.270688
v -0.742447 -0.126186 0.270688
v -0.690909 -0.208040 0.270688
v -0.526123 -0.224851 0.297658
v -0.702084 -0.109092 0.297658
v -0.650546 -0.190946 0.297658
v 0.602927 -0.257378 0.182712
v 0.778888 -0.141619 0.182712
v 0.727350 -0.223473 0.182712
v 0.478511 -0.204687 0.307128
v 0.654472 -0.088928 0.307128
v 0.602934 -0.170782 0.307128
v 0.769417 -0.137608 0.230324
v 0.593456 -0.253367 0.230324
v 0.717879 -0.219462 0.230324
v 0.742447 -0.126186 0.270688
v 0.566486 -0.241945 0.270688
v 0.690909 -0.208040 0.270688
v 0.702084 -0.109092 0.297658
v 0.526123 -0.224851 0.297658
v 0.650546 -0.190946 0.297658
v -0.478511 0.204687 0.307128
v -0.654472 0.088928 0.307128
v -0.602934 0.170782 0.307128
v -0.602927 0.257378 0.182712
v -0.778888 0.141619 0.182712
v -0.727350 0.223473 0.182712
v -0.702084 0.109092 0.297658
v -0.526123 0.224851 0.297658
v -0.650546 0.190946 0.297658
v -0.742447 0.126186 0.270688
v -0.566486 0.241945 0.270688
v -0.690909 0.208040 0.270688
v -0.769417 0.137608 0.230324
v -0.593456 0.253367 0.230324
v -0.717879 0.219462 0.230324
v 0.778888 0.141619 0.182712
v 0.602927 0.257378 0.182712
v 0.727350 0.223473 0.182712
v 0.654472 0.088928 0.307128
v 0.478511 0.204687 0.307128
v 0.602934 0.170782 0.307128
v 0.593456 0.253367 0.230324
v 0.769417 0.137608 0.230324
v 0.717879 0.219462 0.230324
v 0.566486 0.241945 0.270688
v 0.742447 0.126186 0.270688
v 0.690909 0.208040 0.270688
v 0.526123 0.224851 0.297658
v 0.702084 0.109092 0.297658
v 0.650546 0.190946 0.297658
v -0.839493 0.183069 0.148456
v -0.787955 0.264923 0.148456
v -0.663532 0.298829 0.148456
v 0.787955 0.264923 0.148456
v 0.839493 0.183069 0.148456
v 0.663532 0.298829 0.148456
v 0.839493 -0.183069 0.148456
v 0.787955 -0.264923 0.148456
v 0.663532 -0.298829 0.148456
v -0.787955 -0.264923 0.148456
v -0.839493 -0.183069 0.148456
v -0.663532 -0.298829 0.148456
v 0.602927 0.257378 0.148456
v 0.727350 0.223473 0.148456
v 0.778888 0.141619 0.148456
v 0.727350 -0.223473 0.148456
v 0.602927 -0.257378 0.148456
v 0.778888 -0.141619 0.148456
v -0.602927 -0.257378 0.148456
v -0.727350 -0.223473 0.148456
v -0.778888 -0.141619 0.148456
v -0.727350 0.223473 0.148456
v -0.602927 0.257378 0.148456
v -0.778888 0.141619 0.148456
vt 0.250437 0.537251
vt 0.250437 0.729163
vt 0.242334 0.726445
vt 0.242334 0.539969
vt 0.256135 0.537251
vt 0.256135 0.729163
vt 0.256135 0.729163
vt 0.256135 0.537251
vt 0.261834 0.537251
vt 0.261834 0.729163
vt 0.235101 0.718706
vt 0.235101 0.547708
vt 0.641835 0.461798
vt 0.641835 0.807821
vt 0.636107 0.807821
vt 0.636107 0.461798
vt 0.656872 0.461798
vt 0.656872 0.807821
vt 0.648825 0.805104
vt 0.648825 0.464516
vt 0.641835 0.797364
vt 0.641835 0.472255
vt 0.474956 0.375602
vt 0.474956 0.050492
vt 0.481715 0.062075
vt 0.481715 0.364020
vt 0.535462 0.400850
vt 0.503095 0.386061
vt 0.489688 0.350357
vt 0.489688 0.075737
vt 0.503095 0.040034
vt 0.535462 0.025245
vt 0.605790 0.025245
vt 0.638157 0.040034
vt 0.651564 0.075737
vt 0.651564 0.350357
vt 0.638157 0.386061
vt 0.605790 0.400850
vt 0.620523 0.426095
vt 0.520729 0.426095
vt 0.527489 0.414512
vt 0.613764 0.414512
vt 0.269937 0.539969
vt 0.269937 0.726445
vt 0.527489 0.011582
vt 0.613764 0.011582
vt 0.520729 0.000000
vt 0.620523 0.000000
vt 0.659537 0.062075
vt 0.659537 0.364020
vt 0.277169 0.547708
vt 0.277169 0.718706
vt 0.666297 0.050492
vt 0.666297 0.375602
vt 0.628060 0.464516
vt 0.628060 0.805104
vt 0.621070 0.797365
vt 0.621070 0.472255
vt 0.662600 0.461798
vt 0.662600 0.807821
vt 0.635394 0.843525
vt 0.627347 0.840807
vt 0.241345 0.484507
vt 0.249447 0.481790
vt 0.648112 0.428812
vt 0.656159 0.426095
vt 0.249447 0.784624
vt 0.241345 0.781906
vt 0.670813 0.383341
vt 0.657407 0.419045
vt 0.652890 0.411306
vt 0.234112 0.492246
vt 0.470439 0.383341
vt 0.488362 0.411306
vt 0.483846 0.419045
vt 0.234112 0.774167
vt 0.646131 0.399723
vt 0.495122 0.399723
vt 0.270926 0.781906
vt 0.262824 0.784624
vt 0.656159 0.843525
vt 0.648112 0.840807
vt 0.278159 0.774167
vt 0.483846 0.007050
vt 0.488362 0.014789
vt 0.470439 0.042753
vt 0.495122 0.026371
vt 0.627347 0.428812
vt 0.635393 0.426095
vt 0.262824 0.481790
vt 0.270926 0.484507
vt 0.670813 0.042753
vt 0.652890 0.014789
vt 0.657406 0.007050
vt 0.278159 0.492246
vt 0.646130 0.026371
vt 0.641122 0.843525
vt 0.255146 0.481790
vt 0.661887 0.426095
vt 0.255146 0.784624
vt 0.257125 0.784624
vt 0.661887 0.843525
vt 0.641122 0.426095
vt 0.257125 0.481790
vt 0.670813 0.523413
vt 0.670813 0.050492
vt 0.720114 0.096550
vt 0.720114 0.477355
vt 0.470439 0.050492
vt 0.470439 0.431297
vt 0.454049 0.413906
vt 0.454049 0.067883
vt 0.424665 0.481790
vt 0.279886 0.481790
vt 0.296276 0.464399
vt 0.408275 0.464399
vt 0.593292 0.426095
vt 0.593292 0.843132
vt 0.565514 0.758654
vt 0.565514 0.510572
vt 0.565514 0.476587
vt 0.565514 0.949508
vt 0.516213 0.903450
vt 0.516213 0.522645
vt 0.234112 0.431297
vt 0.234112 0.050493
vt 0.250502 0.067883
vt 0.250502 0.413906
vt 0.279886 0.000000
vt 0.424665 0.000000
vt 0.408275 0.017391
vt 0.296276 0.017391
vt 0.519740 1.000000
vt 0.470439 0.953942
vt 0.502806 0.939153
vt 0.552107 0.985211
vt 0.470439 0.472153
vt 0.519740 0.426095
vt 0.552107 0.440883
vt 0.502806 0.486941
vt 0.716587 0.000000
vt 0.765888 0.046058
vt 0.733521 0.060847
vt 0.684220 0.014789
vt 0.765888 0.527848
vt 0.716587 0.573905
vt 0.684220 0.559117
vt 0.733521 0.513059
vt 0.440642 0.032180
vt 0.457032 0.014789
vt 0.247519 0.014789
vt 0.263909 0.032180
vt 0.263909 0.449610
vt 0.247519 0.467001
vt 0.457032 0.467001
vt 0.440642 0.449610
vt 0.621070 0.426095
vt 0.621070 0.843132
vt 0.593292 0.758654
vt 0.593292 0.510572
vn -0.9550 0.2777 0.1036
vn -0.9550 -0.2777 0.1036
vn -0.8830 -0.2565 0.3930
vn -0.8830 0.2565 0.3930
vn -0.9608 0.2773 0.0000
vn -0.9608 -0.2773 0.0000
vn 0.9608 -0.2773 0.0000
vn 0.9608 0.2773 0.0000
vn 0.9550 0.2777 0.1036
vn 0.9550 -0.2777 0.1036
vn -0.6733 -0.1908 0.7143
vn -0.6733 0.1908 0.7143
vn 0.1326 0.9911 0.0000
vn -0.1326 0.9911 0.0000
vn -0.1399 0.9886 0.0558
vn 0.1399 0.9886 0.0558
vn -0.1399 -0.9886 0.0558
vn 0.1399 -0.9886 0.0558
vn 0.1405 -0.9613 0.2368
vn -0.1405 -0.9613 0.2368
vn 0.1145 -0.8570 0.5023
vn -0.1145 -0.8570 0.5023
vn 0.0578 -0.6008 0.7973
vn -0.0578 -0.6008 0.7973
vn -0.1042 -0.0269 0.9942
vn -0.0646 -0.1305 0.9893
vn -0.0084 -0.2182 0.9758
vn 0.0084 -0.2182 0.9758
vn 0.0646 -0.1305 0.9893
vn 0.1042 -0.0269 0.9942
vn 0.1042 0.0269 0.9942
vn 0.0646 0.1305 0.9893
vn 0.0084 0.2182 0.9758
vn -0.0084 0.2182 0.9758
vn -0.0646 0.1305 0.9893
vn -0.1042 0.0269 0.9942
vn -0.3753 -0.1021 0.9212
vn -0.3753 0.1021 0.9212
vn 0.8830 0.2565 0.3930
vn 0.8830 -0.2565 0.3930
vn 0.3753 -0.1021 0.9212
vn 0.3753 0.1021 0.9212
vn 0.6733 -0.1908 0.7143
vn 0.6733 0.1908 0.7143
vn 0.0578 0.6008 0.7973
vn -0.0578 0.6008 0.7973
vn 0.1145 0.8570 0.5023
vn -0.1145 0.8570 0.5023
vn 0.1405 0.9613 0.2368
vn -0.1405 0.9613 0.2368
vn -0.1326 -0.9911 0.0000
vn 0.1326 -0.9911 0.0000
vn -0.6017 0.7935 0.0911
vn -0.5639 0.7461 0.3541
vn -0.5639 -0.7461 0.3541
vn -0.6017 -0.7935 0.0911
vn -0.4283 0.6168 0.6603
vn -0.4283 -0.6168 0.6603
vn -0.2362 0.3965 0.8871
vn -0.2362 -0.3965 0.8871
vn 0.5639 -0.7461 0.3541
vn 0.6017 -0.7935 0.0911
vn 0.4283 -0.6168 0.6603
vn 0.2362 -0.3965 0.8871
vn 0.5639 0.7461 0.3541
vn 0.6017 0.7935 0.0911
vn 0.4283 0.6168 0.6603
vn 0.2362 0.3965 0.8871
vn -0.5951 0.8036 0.0000
vn -0.5951 -0.8036 0.0000
vn 0.5951 -0.8036 0.0000
vn 0.5951 0.8036 0.0000
vn -0.1253 -0.6888 0.7140
vn 0.1253 -0.6888 0.7140
vn 0.0571 -0.7333 0.6775
vn -0.0571 -0.7333 0.6775
vn 0.0000 0.0000 1.0000
vn 0.5796 -0.1957 0.7910
vn 0.5796 0.1957 0.7910
vn 0.6150 0.1335 0.7771
vn 0.6150 -0.1335 0.7771
vn 0.1253 0.6888 0.7140
vn -0.1253 0.6888 0.7140
vn -0.0571 0.7333 0.6775
vn 0.0571 0.7333 0.6775
vn -0.5796 0.1957 0.7910
vn -0.6150 0.1335 0.7771
vn -0.3296 0.5166 0.7902
vn -0.3763 0.4678 0.7997
vn 0.3763 0.4678 0.7997
vn 0.3296 0.5166 0.7902
vn 0.3296 -0.5166 0.7902
vn 0.3763 -0.4678 0.7997
vn -0.6150 -0.1335 0.7771
vn -0.5796 -0.1957 0.7910
vn -0.3763 -0.4678 0.7997
vn -0.3296 -0.5166 0.7902
usemtl lamp_l
s 1
f 71/1/1 37/2/2 44/3/3 79/4/4
f 31/5/5 26/6/6 37/2/2 71/1/1
f 28/7/7 35/8/8 82/9/9 53/10/10
f 79/4/4 44/3/3 47/11/11 76/12/12
f 34/13/13 32/14/14 70/15/15 83/16/16
f 38/17/17 52/18/18 59/19/19 43/20/20
f 43/20/20 59/19/19 62/21/21 46/22/22
f 46/23/22 62/24/21 65/25/23 49/26/24
f 40/27/25 42/28/26 41/29/27 55/30/28 57/31/29 56/32/30 85/33/31 87/34/32 86/35/33 67/36/34 69/37/35 68/38/36
f 49/26/24 65/25/23 55/30/28 41/29/27
f 76/39/12 47/40/11 50/41/37 73/42/38
f 53/10/10 82/9/9 89/43/39 58/44/40
f 73/42/38 50/41/37 40/27/25 68/38/36
f 64/45/41 95/46/42 85/33/31 56/32/30
f 61/47/43 92/48/44 95/46/42 64/45/41
f 94/49/45 74/50/46 67/36/34 86/35/33
f 58/44/40 89/43/39 92/51/44 61/52/43
f 91/53/47 77/54/48 74/50/46 94/49/45
f 88/55/49 80/56/50 77/57/48 91/58/47
f 83/16/16 70/15/15 80/56/50 88/55/49
f 25/59/51 29/60/52 52/18/18 38/17/17
f 80/56/50 70/15/15 72/61/53 81/62/54
f 81/63/54 72/64/53 71/1/1 79/4/4
f 38/17/17 43/20/20 45/65/55 39/66/56
f 39/67/56 45/68/55 44/3/3 37/2/2
f 77/54/48 80/69/50 81/70/54 78/71/57
f 78/72/57 81/63/54 79/4/4 76/12/12
f 43/73/20 46/23/22 48/74/58 45/75/55
f 45/68/55 48/76/58 47/11/11 44/3/3
f 74/50/46 77/54/48 78/71/57 75/77/59
f 75/77/59 78/71/57 76/39/12 73/42/38
f 46/23/22 49/26/24 51/78/60 48/74/58
f 48/74/58 51/78/60 50/41/37 47/40/11
f 67/36/34 74/50/46 75/77/59 69/37/35
f 69/37/35 75/77/59 73/42/38 68/38/36
f 49/26/24 41/29/27 42/28/26 51/78/60
f 51/78/60 42/28/26 40/27/25 50/41/37
f 53/10/10 58/44/40 60/79/61 54/80/62
f 54/81/62 60/82/61 59/19/19 52/18/18
f 58/44/40 61/52/43 63/83/63 60/79/61
f 60/84/61 63/85/63 62/24/21 59/86/19
f 61/47/43 64/45/41 66/87/64 63/85/63
f 63/85/63 66/87/64 65/25/23 62/24/21
f 64/45/41 56/32/30 57/31/29 66/87/64
f 66/87/64 57/31/29 55/30/28 65/25/23
f 83/16/16 88/55/49 90/88/65 84/89/66
f 84/90/66 90/91/65 89/43/39 82/9/9
f 88/92/49 91/53/47 93/93/67 90/94/65
f 90/91/65 93/95/67 92/51/44 89/43/39
f 91/53/47 94/49/45 96/96/68 93/93/67
f 93/93/67 96/96/68 95/46/42 92/48/44
f 94/49/45 86/35/33 87/34/32 96/96/68
f 96/96/68 87/34/32 85/33/31 95/46/42
f 70/15/15 32/14/14 33/97/69 72/61/53
f 72/64/53 33/98/69 31/5/5 71/1/1
f 25/59/51 38/17/17 39/66/56 27/99/70
f 27/100/70 39/67/56 37/2/2 26/6/6
f 28/7/7 53/10/10 54/80/62 30/101/71
f 30/102/71 54/81/62 52/18/18 29/60/52
f 34/13/13 83/16/16 84/89/66 36/103/72
f 36/104/72 84/90/66 82/9/9 35/8/8
usemtl lamp_base
f 1/105/73 5/106/74 105/107/75 108/108/76
f 22/109/77 20/110/77 119/111/77 109/112/77
f 19/113/77 14/114/77 117/115/77 120/116/77
f 4/117/78 11/118/79 101/119/80 103/120/81
f 10/121/82 8/122/83 99/123/84 102/124/85
f 13/125/77 17/126/77 113/127/77 115/128/77
f 16/129/77 23/130/77 111/131/77 114/132/77
f 7/133/86 97/134/87 98/135/88 9/136/89
f 9/136/89 98/135/88 99/123/84 8/122/83
f 101/137/80 11/138/79 12/139/90 100/140/91
f 100/140/91 12/139/90 10/121/82 102/124/85
f 4/141/78 103/142/81 104/143/92 6/144/93
f 6/144/93 104/143/92 105/107/75 5/106/74
f 107/145/94 2/146/95 3/147/96 106/148/97
f 106/148/97 3/147/96 1/105/73 108/108/76
f 22/109/77 109/112/77 110/149/77 24/150/77
f 24/150/77 110/149/77 111/131/77 23/130/77
f 113/127/77 17/126/77 18/151/77 112/152/77
f 112/152/77 18/151/77 16/129/77 114/132/77
f 13/125/77 115/128/77 116/153/77 15/154/77
f 15/154/77 116/153/77 117/115/77 14/114/77
f 119/111/77 20/110/77 21/155/77 118/156/77
f 118/156/77 21/155/77 19/113/77 120/116/77
f 7/157/86 2/158/95 107/159/94 97/160/87
