{
  "asset": {
    "generator": "Khronos glTF Blender I/O v3.6.27",
    "version": "2.0"
  },
  "scene": 0,
  "scenes": [
    {
      "name": "Scene",
      "nodes": [
        0,
        1
      ]
    }
  ],
  "nodes": [
    {
      "mesh": 0,
      "name": "rollershutter_window_03"
    },
    {
      "mesh": 1,
      "name": "rollershutter_window_03_graffiti",
      "translation": [
        2,
        0,
        0
      ]
    }
  ],
  "materials": [
    {
      "doubleSided": true,
      "name": "rollershutter_window_03",
      "normalTexture": {
        "index": 0
      },
      "pbrMetallicRoughness": {
        "baseColorTexture": {
          "index": 1
        },
        "metallicRoughnessTexture": {
          "index": 2
        }
      }
    },
    {
      "doubleSided": true,
      "name": "rollershutter_window_03_graffiti",
      "normalTexture": {
        "index": 3
      },
      "pbrMetallicRoughness": {
        "baseColorTexture": {
          "index": 4
        },
        "metallicRoughnessTexture": {
          "index": 5
        }
      }
    }
  ],
  "meshes": [
    {
      "name": "Plane.016",
      "primitives": [
        {
          "attributes": {
            "POSITION": 0,
            "NORMAL": 1,
            "TEXCOORD_0": 2
          },
          "indices": 3,
          "material": 0
        }
      ]
    },
    {
      "name": "Plane.002",
      "primitives": [
        {
          "attributes": {
            "POSITION": 4,
            "NORMAL": 5,
            "TEXCOORD_0": 6
          },
          "indices": 3,
          "material": 1
        }
      ]
    }
  ],
  "textures": [
    {
      "sampler": 0,
      "source": 0
    },
    {
      "sampler": 0,
      "source": 1
    },
    {
      "sampler": 0,
      "source": 2
    },
    {
      "sampler": 0,
      "source": 0
    },
    {
      "sampler": 0,
      "source": 3
    },
    {
      "sampler": 0,
      "source": 2
    }
  ],
  "images": [
    {
      "mimeType": "image/jpeg",
      "name": "rollershutter_window_03_nor_gl",
      "uri": "textures/rollershutter_window_03_nor_gl_2k.jpg"
    },
    {
      "mimeType": "image/jpeg",
      "name": "rollershutter_window_03_diff",
      "uri": "textures/rollershutter_window_03_diff_2k.jpg"
    },
    {
      "mimeType": "image/jpeg",
      "name": "rollershutter_window_03_metal-rollershutter_window_03_rough",
      "uri": "textures/rollershutter_window_03_arm_2k.jpg"
    },
    {
      "mimeType": "image/jpeg",
      "name": "rollershutter_window_03_graffiti_diff",
      "uri": "textures/rollershutter_window_03_graffiti_diff_2k.jpg"
    }
  ],
  "accessors": [
    {
      "bufferView": 0,
      "componentType": 5126,
      "count": 670,
      "max": [
        0.4881257116794586,
        1.5462812185287476,
        0.15208569169044495
      ],
      "min": [
        -0.4881257116794586,
        0.0000022873277885082643,
        -0.0010000001639127731
      ],
      "type": "VEC3"
    },
    {
      "bufferView": 1,
      "componentType": 5126,
      "count": 670,
      "type": "VEC3"
    },
    {
      "bufferView": 2,
      "componentType": 5126,
      "count": 670,
      "type": "VEC2"
    },
    {
      "bufferView": 3,
      "componentType": 5123,
      "count": 1680,
      "type": "SCALAR"
    },
    {
      "bufferView": 4,
      "componentType": 5126,
      "count": 670,
      "max": [
        0.4881257116794586,
        1.5462812185287476,
        0.15208569169044495
      ],
      "min": [
        -0.4881257116794586,
        0.0000022873277885082643,
        -0.0010000001639127731
      ],
      "type": "VEC3"
    },
    {
      "bufferView": 5,
      "componentType": 5126,
      "count": 670,
      "type": "VEC3"
    },
    {
      "bufferView": 6,
      "componentType": 5126,
      "count": 670,
      "type": "VEC2"
    }
  ],
  "bufferViews": [
    {
      "buffer": 0,
      "byteLength": 8040,
      "byteOffset": 0,
      "target": 34962
    },
    {
      "buffer": 0,
      "byteLength": 8040,
      "byteOffset": 8040,
      "target": 34962
    },
    {
      "buffer": 0,
      "byteLength": 5360,
      "byteOffset": 16080,
      "target": 34962
    },
    {
      "buffer": 0,
      "byteLength": 3360,
      "byteOffset": 21440,
      "target": 34963
    },
    {
      "buffer": 0,
      "byteLength": 8040,
      "byteOffset": 24800,
      "target": 34962
    },
    {
      "buffer": 0,
      "byteLength": 8040,
      "byteOffset": 32840,
      "target": 34962
    },
    {
      "buffer": 0,
      "byteLength": 5360,
      "byteOffset": 40880,
      "target": 34962
    }
  ],
  "samplers": [
    {
      "magFilter": 9729,
      "minFilter": 9987
    }
  ],
  "buffers": [
    {
      "byteLength": 46240,
      "uri": "rollershutter_window_03.bin"
    }
  ]
}