# Blender v2.79 (sub 0) OBJ File: 'door.blend'
# www.blender.org
mtllib concrete_door_mv_right.mtl
o concrete_door_mv_right_concrete_door.001
v 0.332604 -0.821236 0.037495
v 0.332604 0.354395 0.037495
v 0.305260 0.327051 0.012495
v 0.305260 -0.793892 0.012495
v 0.168413 0.354395 0.037495
v 0.195756 0.327051 0.012495
v 0.168413 -0.821236 0.037495
v 0.195756 -0.793892 0.012495
v 0.332604 -0.821236 -0.037495
v 0.305260 -0.793892 -0.012495
v 0.305260 0.327051 -0.012495
v 0.332604 0.354395 -0.037495
v 0.195756 0.327051 -0.012495
v 0.168413 0.354395 -0.037495
v 0.195756 -0.793892 -0.012495
v 0.168413 -0.821236 -0.037495
v -0.025007 -1.774318 0.037495
v 1.033599 -1.774318 0.037495
v 0.028077 -1.774318 0.037495
v -0.025007 0.558907 0.037495
v 1.033599 0.558907 0.037495
v 0.028077 0.558907 0.037495
v 0.028077 0.558907 0.049995
v -0.025007 0.558907 0.049995
v -0.025007 -1.774318 0.049995
v 0.028077 -1.774318 0.049995
v 1.033599 -1.774318 -0.037495
v 0.028077 -1.774318 -0.037495
v -0.025007 0.558907 -0.037495
v 1.033599 0.558907 -0.037495
v 0.028077 0.558907 -0.037495
v 0.028077 0.558907 -0.049995
v 0.028077 -1.774318 -0.049995
v -0.025007 -1.774318 -0.049995
v -0.025007 0.558907 -0.049995
vt 0.704100 0.136100
vt 0.704100 0.304000
vt 0.698200 0.298500
vt 0.698200 0.141500
vt 0.680700 0.304000
vt 0.686600 0.298500
vt 0.680700 0.136100
vt 0.686600 0.141500
vt 0.703800 0.136100
vt 0.697900 0.141500
vt 0.697900 0.298500
vt 0.703800 0.304000
vt 0.686400 0.298500
vt 0.680400 0.304000
vt 0.686400 0.141500
vt 0.680400 0.136100
vt 0.804300 -0.000000
vt 0.660600 -0.000000
vt 0.804300 0.333200
vt 0.660600 0.333200
vt 0.660300 0.333300
vt 0.652700 0.333300
vt 0.652700 -0.000000
vt 0.660300 -0.000000
vt 0.568900 0.333400
vt 0.568900 -0.000600
vt 0.565700 -0.000600
vt 0.565700 0.333400
vt 0.568900 0.333400
vt 0.565700 0.333400
vt 0.568900 -0.000600
vt 0.565700 -0.000600
vt 0.804000 -0.000000
vt 0.660300 -0.000000
vt 0.804000 0.333200
vt 0.660300 0.333200
vt 0.660300 0.333300
vt 0.660300 -0.000000
vt 0.652700 -0.000000
vt 0.652700 0.333300
vt 0.587500 0.333400
vt 0.590600 0.333400
vt 0.590600 -0.000600
vt 0.587500 -0.000600
vt 0.590600 -0.000600
vt 0.590600 0.333400
vt 0.587500 0.333400
vn -0.6748 -0.0000 0.7380
vn 0.0000 -0.6748 0.7380
vn 0.6748 -0.0000 0.7380
vn 0.0000 0.6748 0.7380
vn -0.6748 0.0000 -0.7380
vn 0.0000 -0.6748 -0.7380
vn 0.6748 0.0000 -0.7380
vn 0.0000 0.6748 -0.7380
vn 0.0000 -0.0000 1.0000
vn -1.0000 -0.0000 0.0000
vn 0.8426 -0.5290 -0.1007
vn 1.0000 0.0000 0.0000
vn 0.4472 -0.8944 -0.0048
vn 0.4472 -0.8944 -0.0000
vn 0.0000 0.0000 -1.0000
vn -0.4472 -0.4472 0.7746
vn 0.2000 -0.2982 -0.9333
usemtl None
s off
f 1/1/1 2/2/1 3/3/1 4/4/1
f 2/2/2 5/5/2 6/6/2 3/3/2
f 5/5/3 7/7/3 8/8/3 6/6/3
f 7/7/4 1/1/4 4/4/4 8/8/4
f 9/9/5 10/10/5 11/11/5 12/12/5
f 12/12/6 11/11/6 13/13/6 14/14/6
f 14/14/7 13/13/7 15/15/7 16/16/7
f 16/16/8 15/15/8 10/10/8 9/9/8
s 1
f 18/17/9 1/1/9 7/7/9 19/18/9
f 21/19/9 22/20/9 5/5/9 2/2/9
f 5/5/9 22/20/9 19/18/9 7/7/9
f 23/21/9 24/22/9 25/23/9 26/24/9
f 21/19/9 2/2/9 1/1/9 18/17/9
f 3/3/9 6/6/9 8/8/9 4/4/9
f 20/25/10 17/26/10 25/27/10 24/28/11
f 22/29/12 23/30/13 19/31/12
f 19/31/12 23/30/14 26/32/12
f 27/33/15 28/34/15 16/16/15 9/9/15
f 30/35/15 12/12/15 14/14/15 31/36/15
f 14/14/15 16/16/15 28/34/15 31/36/15
f 32/37/15 33/38/15 34/39/15 35/40/15
f 30/35/15 27/33/15 9/9/15 12/12/15
f 11/11/15 10/10/15 15/15/15 13/13/15
f 29/41/12 35/42/16 34/43/10
f 28/44/12 33/45/12 32/46/17 31/47/12
f 29/41/12 34/43/10 17/26/10 20/25/10
