# Blender v2.79 (sub 0) OBJ File: ''
# www.blender.org
mtllib concrete_double_window.mtl
o concrete_double_window.001
v 1.750005 -1.774318 -0.200001
v 1.750005 -1.774318 0.199999
v -1.749995 -1.774318 0.199999
v -1.749995 -1.774318 -0.200001
v 1.750005 1.725682 -0.200000
v 1.750007 1.725682 0.200000
v -1.749995 1.725682 -0.200000
v -1.749995 1.725682 0.200000
v -1.413500 0.892294 0.200000
v 1.419722 0.892294 0.200000
v 1.419722 -0.940933 0.199999
v -1.413500 -0.940933 0.199999
v 1.419722 0.892294 -0.200000
v -1.413500 0.892294 -0.200000
v -1.413500 -0.940933 -0.200001
v 1.419722 -0.940933 -0.200001
v -1.415571 0.892294 0.022787
v -1.415571 -0.940949 0.022787
v 0.002075 -0.940949 0.022787
v 0.002075 0.892294 0.022787
v 0.002075 -0.940949 -0.000842
v -1.415571 -0.940949 -0.000842
v -1.415571 0.892294 -0.000842
v 0.002075 0.892294 -0.000842
v 0.002076 0.892294 0.022787
v 0.002076 -0.940949 0.022787
v 1.419722 -0.940949 0.022787
v 1.419722 0.892294 0.022787
v 1.419722 -0.940949 -0.000842
v 0.002076 -0.940949 -0.000842
v 0.002076 0.892294 -0.000842
v 1.419722 0.892294 -0.000842
vt 1.000000 0.500100
vt 1.000000 0.562600
vt 0.500000 0.562600
vt 0.500000 0.500100
vt 1.000000 1.000100
vt 0.937500 1.000100
vt 0.937500 0.500000
vt 1.000000 0.500000
vt 0.500000 1.000000
vt 0.500000 0.937500
vt 1.000000 0.937500
vt 1.000000 1.000000
vt 0.500000 0.500000
vt 0.562500 0.500000
vt 0.562500 1.000100
vt 0.500000 1.000100
vt 0.500000 1.000000
vt 0.548100 0.881000
vt 0.952800 0.881000
vt 1.000000 1.000000
vt 1.000000 0.500000
vt 0.952800 0.619100
vt 0.548100 0.619100
vt 0.500000 0.500000
vt 0.952800 0.881000
vt 0.548100 0.881000
vt 0.548100 0.619100
vt 0.952800 0.619100
vt 1.000000 0.881000
vt 1.000000 0.619100
vt 0.937500 0.619100
vt 0.937500 0.881000
vt 0.500000 0.619100
vt 0.500000 0.881000
vt 0.562500 0.881000
vt 0.562500 0.619100
vt 0.952800 0.500100
vt 0.548000 0.500100
vt 0.548000 0.562600
vt 0.952800 0.562600
vt 0.548000 1.000000
vt 0.952800 1.000000
vt 0.952800 0.937500
vt 0.548000 0.937500
vt 0.812500 0.343800
vt 0.812500 0.093800
vt 1.000000 0.093800
vt 1.000000 0.343800
vt 1.000000 0.093800
vt 0.812500 0.093800
vt 0.812500 0.343800
vt 1.000000 0.343800
vt 0.812500 0.343800
vt 0.812500 0.093800
vt 1.000000 0.093800
vt 1.000000 0.343800
vt 1.000000 0.093800
vt 0.812500 0.093800
vt 0.812500 0.343800
vt 1.000000 0.343800
vn 0.0000 -1.0000 0.0000
vn 1.0000 -0.0000 -0.0000
vn 0.0000 1.0000 -0.0000
vn -1.0000 0.0000 0.0000
vn 0.0000 -0.0000 1.0000
vn -0.0000 0.0000 -1.0000
usemtl None
s 1
f 1/1/1 2/2/1 3/3/1 4/4/1
f 5/5/2 6/6/2 2/7/2 1/8/2
f 7/9/3 8/10/3 6/11/3 5/12/3
f 4/13/4 3/14/4 8/15/4 7/16/4
f 8/17/5 9/18/5 10/19/5 6/20/5
f 2/21/5 11/22/5 12/23/5 3/24/5
f 5/12/6 13/25/6 14/26/6 7/9/6
f 4/13/6 15/27/6 16/28/6 1/8/6
f 8/17/5 3/24/5 12/23/5 9/18/5
f 2/21/5 6/20/5 10/19/5 11/22/5
f 5/12/6 1/8/6 16/28/6 13/25/6
f 4/13/6 7/9/6 14/26/6 15/27/6
f 13/29/4 16/30/4 11/31/4 10/32/4
f 15/33/2 14/34/2 9/35/2 12/36/2
f 16/37/3 15/38/3 12/39/3 11/40/3
f 14/41/1 13/42/1 10/43/1 9/44/1
f 17/45/5 18/46/5 19/47/5 20/48/5
f 21/49/6 22/50/6 23/51/6 24/52/6
f 25/53/5 26/54/5 27/55/5 28/56/5
f 29/57/6 30/58/6 31/59/6 32/60/6
