# Blender v2.79 (sub 0) OBJ File: 'door.blend'
# www.blender.org
mtllib concrete_door_mv_left.mtl
o concrete_door_mv_left_concrete_door.002
v -0.176293 -0.821236 0.037495
v -0.176293 0.354395 0.037495
v -0.203637 0.327051 0.012495
v -0.203637 -0.793892 0.012495
v -0.344980 0.354395 0.037495
v -0.317636 0.327051 0.012495
v -0.344980 -0.821236 0.037495
v -0.317636 -0.793892 0.012495
v -0.176293 -0.821236 -0.037495
v -0.203637 -0.793892 -0.012495
v -0.203637 0.327051 -0.012495
v -0.176293 0.354395 -0.037495
v -0.317636 0.327051 -0.012495
v -0.344980 0.354395 -0.037495
v -0.317636 -0.793892 -0.012495
v -0.344980 -0.821236 -0.037495
v -0.025007 -1.774318 0.037495
v -1.033588 -1.774318 0.037495
v -0.025007 0.558907 0.037495
v -1.033588 0.558907 0.037495
v -0.025007 -1.774318 -0.037495
v -1.033588 -1.774318 -0.037495
v -0.025007 0.558907 -0.037495
v -1.033588 0.558907 -0.037495
vt 0.631100 0.136100
vt 0.631100 0.304000
vt 0.624600 0.297500
vt 0.624600 0.142500
vt 0.607000 0.304000
vt 0.613500 0.297500
vt 0.607000 0.136100
vt 0.613500 0.142500
vt 0.631100 0.136100
vt 0.624600 0.142500
vt 0.624600 0.297500
vt 0.631100 0.304000
vt 0.613500 0.297500
vt 0.607000 0.304000
vt 0.613500 0.142500
vt 0.607000 0.136100
vt 0.652700 -0.000000
vt 0.508600 -0.000000
vt 0.652700 0.333200
vt 0.508600 0.333200
vt 0.652700 -0.000000
vt 0.508600 -0.000000
vt 0.652700 0.333200
vt 0.508600 0.333200
vt 0.585747 0.316550
vt 0.585747 0.016650
vt 0.569741 0.016650
vt 0.569741 0.316550
vn -0.6748 -0.0000 0.7380
vn 0.0000 -0.6748 0.7380
vn 0.6748 -0.0000 0.7380
vn 0.0000 0.6748 0.7380
vn -0.6748 0.0000 -0.7380
vn 0.0000 -0.6748 -0.7380
vn 0.6748 0.0000 -0.7380
vn 0.0000 0.6748 -0.7380
vn 0.0000 -0.0000 1.0000
vn 0.0000 0.0000 -1.0000
vn 1.0000 0.0000 0.0000
usemtl None
s off
f 1/1/1 2/2/1 3/3/1 4/4/1
f 2/2/2 5/5/2 6/6/2 3/3/2
f 5/5/3 7/7/3 8/8/3 6/6/3
f 7/7/4 1/1/4 4/4/4 8/8/4
f 9/9/5 10/10/5 11/11/5 12/12/5
f 12/12/6 11/11/6 13/13/6 14/14/6
f 14/14/7 13/13/7 15/15/7 16/16/7
f 16/16/8 15/15/8 10/10/8 9/9/8
s 1
f 17/17/9 1/1/9 7/7/9 18/18/9
f 19/19/9 20/20/9 5/5/9 2/2/9
f 5/5/9 20/20/9 18/18/9 7/7/9
f 19/19/9 2/2/9 1/1/9 17/17/9
f 3/3/9 6/6/9 8/8/9 4/4/9
f 21/21/10 22/22/10 16/16/10 9/9/10
f 23/23/10 12/12/10 14/14/10 24/24/10
f 14/14/10 16/16/10 22/22/10 24/24/10
f 23/23/10 21/21/10 9/9/10 12/12/10
f 11/11/10 10/10/10 15/15/10 13/13/10
f 19/25/11 17/26/11 21/27/11 23/28/11
