# Blender v2.79 (sub 0) OBJ File: 'door.blend'
# www.blender.org
mtllib concrete_door_base.mtl
o concrete_door_base_concrete_door
v 1.750005 1.725682 -0.200000
v 1.750005 1.725682 0.200000
v 1.750005 -1.774318 0.200000
v 1.750005 -1.774318 -0.200000
v -1.749995 1.725682 -0.200000
v -1.749995 1.725682 0.200000
v 1.093755 0.632051 -0.200000
v -1.093745 0.632051 -0.200000
v 1.093755 0.632051 0.200000
v 1.093755 -1.774318 0.200000
v 1.093755 -1.774318 -0.200000
v -1.749995 -1.774318 0.200000
v -1.749995 -1.774318 -0.200000
v -1.093745 -1.774318 -0.200000
v -1.093745 -1.774318 0.200000
v -1.093745 0.632051 0.200000
v 0.028077 0.558907 0.062495
v 0.001535 0.631932 0.062495
v -0.025007 0.558907 0.062495
v -1.093745 0.631932 0.062495
v -1.033588 0.558907 0.062495
v -1.033588 -1.774318 0.037495
v 1.033599 0.558907 0.062495
v 1.093755 0.631932 0.062495
v 1.033599 -1.774318 0.037495
v -1.093745 -1.774318 0.062495
v -1.033588 -1.774318 0.062495
v -1.033588 0.558907 0.037495
v 1.033599 0.558907 0.037495
v 1.033599 -1.774318 0.062495
v 1.093755 -1.774318 0.062495
v 0.028077 0.558907 -0.062495
v -0.025007 0.558907 -0.062495
v 0.001535 0.631932 -0.062495
v -1.033588 0.558907 -0.062495
v -1.093745 0.631932 -0.062495
v -1.033588 -1.774318 -0.037495
v 1.033599 0.558907 -0.062495
v 1.093755 0.631932 -0.062495
v 1.033599 -1.774318 -0.037495
v -1.093745 -1.774318 -0.062495
v -1.033588 -1.774318 -0.062495
v -1.033588 0.558907 -0.037495
v 1.033599 0.558907 -0.037495
v 1.093755 -1.774318 -0.062495
v 1.033599 -1.774318 -0.062495
vt 0.660689 0.090205
vt 0.653200 0.086300
vt 0.509800 0.086300
vt 0.509800 0.090200
vt 0.803700 0.090200
vt 0.803700 0.086300
vt 1.000000 1.000000
vt 0.937500 1.000000
vt 0.937500 0.500000
vt 1.000000 0.500000
vt 0.500000 1.000000
vt 0.500000 0.937400
vt 1.000000 0.937400
vt 0.906300 0.843800
vt 0.593800 0.843800
vt 1.000000 0.500000
vt 1.000000 1.000000
vt 0.906300 0.843800
vt 0.906300 0.500000
vt 1.000000 0.562600
vt 0.906300 0.562600
vt 0.906300 0.500000
vt 0.500000 0.562600
vt 0.500000 0.500000
vt 0.593700 0.500000
vt 0.593700 0.562600
vt 0.593800 0.500000
vt 0.500000 1.000000
vt 0.593800 0.843800
vt 0.562600 0.500000
vt 0.562600 1.000000
vt 0.500000 0.500000
vt 0.593800 0.500000
vt 0.593700 1.000000
vt 0.906300 1.000000
vt 0.906300 0.937400
vt 0.593700 0.937400
vt 1.000000 0.843800
vt 1.000000 0.500000
vt 0.937500 0.500000
vt 0.937500 0.843800
vt 0.500000 0.500000
vt 0.500000 0.843800
vt 0.562600 0.843800
vt 0.562600 0.500000
vt 0.660300 0.333300
vt 0.656500 0.343700
vt 0.652700 0.333300
vt 0.500000 0.343800
vt 0.508600 0.333300
vt 0.803900 0.333300
vt 0.812500 0.343800
vt 0.500000 0.000000
vt 0.508600 0.000000
vt 0.803900 -0.000000
vt 0.812500 0.000000
vt 0.568900 0.333400
vt 0.568900 -0.000600
vt 0.562600 -0.000600
vt 0.562600 0.333400
vt 0.568900 -0.000600
vt 0.568900 0.333400
vt 0.562600 0.333400
vt 0.562600 -0.000600
vt 0.660300 0.333300
vt 0.652700 0.333300
vt 0.656500 0.343700
vt 0.508600 0.333300
vt 0.500000 0.343800
vt 0.803900 0.333300
vt 0.812500 0.343800
vt 0.500000 0.000000
vt 0.508600 0.000000
vt 0.812500 0.000000
vt 0.803900 -0.000000
vt 0.660700 0.105700
vt 0.803700 0.105700
vt 0.803700 0.101900
vt 0.509800 0.101900
vt 0.509800 0.105700
vt 0.587500 0.333400
vt 0.593700 0.333400
vt 0.593700 -0.000600
vt 0.587500 -0.000600
vt 0.587500 -0.000600
vt 0.593700 -0.000600
vt 0.593700 0.333400
vt 0.587500 0.333400
vn 0.0000 -1.0000 0.0000
vn 1.0000 0.0000 0.0000
vn 0.0000 1.0000 0.0000
vn 0.0000 0.0000 -1.0000
vn 0.0000 -0.0000 1.0000
vn -1.0000 0.0000 0.0000
usemtl None
s off
f 17/1/1 19/2/1 21/3/1 28/4/1 29/5/1 23/6/1
s 1
f 1/7/2 2/8/2 3/9/2 4/10/2
f 5/11/3 6/12/3 2/13/3 1/7/3
f 1/7/4 7/14/4 8/15/4 5/11/4
f 3/16/5 2/17/5 9/18/5 10/19/5
f 4/10/1 3/20/1 10/21/1 11/22/1
f 12/23/1 13/24/1 14/25/1 15/26/1
f 13/24/4 5/11/4 8/15/4 14/27/4
f 2/17/5 6/28/5 16/29/5 9/18/5
f 13/24/6 12/30/6 6/31/6 5/11/6
f 12/32/5 15/33/5 16/29/5 6/28/5
f 4/10/4 11/22/4 7/14/4 1/7/4
f 8/34/1 7/35/1 9/36/1 16/37/1
f 7/38/6 11/39/6 10/40/6 9/41/6
f 14/42/2 8/43/2 16/44/2 15/45/2
f 17/46/5 18/47/5 19/48/5
f 20/49/5 21/50/5 19/48/5 18/47/5
f 18/47/5 17/46/5 23/51/5 24/52/5
f 26/53/5 27/54/5 21/50/5 20/49/5
f 24/52/5 23/51/5 30/55/5 31/56/5
f 29/57/6 25/58/6 30/59/6 23/60/6
f 22/61/2 28/62/2 21/63/2 27/64/2
f 32/65/4 33/66/4 34/67/4
f 33/66/4 35/68/4 36/69/4 34/67/4
f 38/70/4 32/65/4 34/67/4 39/71/4
f 41/72/4 36/69/4 35/68/4 42/73/4
f 39/71/4 45/74/4 46/75/4 38/70/4
f 33/66/1 32/76/1 38/77/1 44/78/1 43/79/1 35/80/1
f 44/81/6 38/82/6 46/83/6 40/84/6
f 37/85/2 42/86/2 35/87/2 43/88/2
f 44/78/1 29/5/1 28/4/1 43/79/1
