# Blender v2.79 (sub 0) OBJ File: ''
# www.blender.org
mtllib concrete_small_window_1.mtl
o concrete_small_window_1
v 1.750005 -1.774318 -0.200000
v 1.750005 -1.774318 0.200000
v -1.749995 -1.774318 0.200000
v -1.749995 -1.774318 -0.200000
v 1.750005 1.725682 -0.200000
v 1.750005 1.725682 0.200000
v -1.749995 1.725682 -0.200000
v -1.749995 1.725682 0.200000
v -0.750279 0.808914 0.200000
v 0.750289 0.808913 0.200000
v 0.750289 -0.024387 0.200000
v -0.750279 -0.024387 0.200000
v 0.750289 0.808913 -0.200000
v -0.750279 0.808914 -0.200000
v -0.750279 -0.024387 -0.200000
v 0.750289 -0.024387 -0.200000
v -0.750034 0.808913 0.025000
v -0.750034 -0.024387 0.025000
v 0.749908 -0.024387 0.025000
v 0.749908 0.808913 0.025000
v 0.749908 -0.024387 -0.025000
v -0.750034 -0.024387 -0.025000
v -0.750034 0.808913 -0.025000
v 0.749908 0.808913 -0.025000
vt 1.000000 0.500000
vt 1.000000 0.562600
vt 0.500000 0.562600
vt 0.500000 0.500000
vt 1.000000 1.000000
vt 0.937500 1.000000
vt 0.937500 0.500000
vt 0.500000 1.000000
vt 0.500000 0.937400
vt 1.000000 0.937400
vt 0.562600 0.500000
vt 0.562600 1.000000
vt 0.500000 1.000000
vt 0.642800 0.869000
vt 0.857200 0.869000
vt 1.000000 1.000000
vt 1.000000 0.500000
vt 0.857200 0.750000
vt 0.642800 0.750000
vt 0.500000 0.500000
vt 0.857200 0.869000
vt 0.642800 0.869000
vt 0.642800 0.750000
vt 0.857200 0.750000
vt 1.000000 0.869000
vt 1.000000 0.750000
vt 0.937500 0.750000
vt 0.937500 0.869000
vt 0.500000 0.750000
vt 0.500000 0.869000
vt 0.562600 0.869000
vt 0.562600 0.750000
vt 0.857200 0.500000
vt 0.642800 0.500000
vt 0.642800 0.562600
vt 0.857200 0.562600
vt 0.642800 1.000000
vt 0.857200 1.000000
vt 0.857200 0.937400
vt 0.642800 0.937400
vt 0.812500 0.093800
vt 0.812500 0.000000
vt 1.000000 0.000000
vt 1.000000 0.093800
vt 1.000000 0.000000
vt 0.812500 0.000000
vt 0.812500 0.093800
vt 1.000000 0.093800
vn 0.0000 -1.0000 0.0000
vn 1.0000 0.0000 0.0000
vn 0.0000 1.0000 0.0000
vn -1.0000 0.0000 0.0000
vn -0.0000 -0.0000 1.0000
vn 0.0000 0.0000 -1.0000
usemtl Material.001
s 1
f 1/1/1 2/2/1 3/3/1 4/4/1
f 5/5/2 6/6/2 2/7/2 1/1/2
f 7/8/3 8/9/3 6/10/3 5/5/3
f 4/4/4 3/11/4 8/12/4 7/8/4
f 8/13/5 9/14/5 10/15/5 6/16/5
f 2/17/5 11/18/5 12/19/5 3/20/5
f 5/5/6 13/21/6 14/22/6 7/8/6
f 4/4/6 15/23/6 16/24/6 1/1/6
f 8/13/5 3/20/5 12/19/5 9/14/5
f 2/17/5 6/16/5 10/15/5 11/18/5
f 5/5/6 1/1/6 16/24/6 13/21/6
f 4/4/6 7/8/6 14/22/6 15/23/6
f 13/25/4 16/26/4 11/27/4 10/28/4
f 15/29/2 14/30/2 9/31/2 12/32/2
f 16/33/3 15/34/3 12/35/3 11/36/3
f 14/37/1 13/38/1 10/39/1 9/40/1
f 17/41/5 18/42/5 19/43/5 20/44/5
f 21/45/6 22/46/6 23/47/6 24/48/6
