# Blender v2.79 (sub 0) OBJ File: ''
# www.blender.org
mtllib pillar_concrete_1.mtl
o pillar_concrete_1
v 0.450001 -1.774318 0.450000
v 0.450001 1.725682 0.450000
v -0.449999 1.725682 0.450000
v -0.449999 -1.774318 0.450000
v -0.449999 -1.774318 -0.450000
v 0.450001 -1.774318 -0.450000
v 0.450001 1.725682 -0.450000
v -0.449999 1.725682 -0.450000
vt 0.812500 0.500000
vt 0.812500 1.000000
vt 0.687500 1.000000
vt 0.687500 0.500000
vt 0.687500 0.625000
vt 0.812500 0.624900
vt 0.937500 0.500000
vt 0.937500 1.000000
vt 0.812500 1.000000
vt 0.687500 1.000000
vt 0.687500 0.875000
vt 0.812500 0.875000
vt 0.562500 1.000000
vt 0.562500 0.500000
vt 0.812500 0.500000
vt 0.687500 0.500000
vn 0.0000 -0.0000 1.0000
vn 0.0000 -1.0000 0.0000
vn 1.0000 -0.0000 0.0000
vn 0.0000 1.0000 0.0000
vn -1.0000 -0.0000 0.0000
vn 0.0000 0.0000 -1.0000
usemtl None
s 1
f 1/1/1 2/2/1 3/3/1 4/4/1
f 5/5/2 6/6/2 1/1/2 4/4/2
f 6/7/3 7/8/3 2/2/3 1/1/3
f 7/9/4 8/10/4 3/11/4 2/12/4
f 8/13/5 5/14/5 4/4/5 3/3/5
f 8/10/6 7/9/6 6/15/6 5/16/6
